<mxfile host="Electron" agent="Mozilla/5.0 (Windows NT 10.0; Win64; x64) AppleWebKit/537.36 (KHTML, like Gecko) draw.io/26.0.16 Chrome/132.0.6834.196 Electron/34.2.0 Safari/537.36" version="26.0.16">
  <diagram name="Page-1" id="e7e014a7-5840-1c2e-5031-d8a46d1fe8dd">
    <mxGraphModel dx="1391" dy="686" grid="1" gridSize="10" guides="1" tooltips="1" connect="1" arrows="1" fold="1" page="1" pageScale="1" pageWidth="1169" pageHeight="826" background="none" math="0" shadow="0">
      <root>
        <mxCell id="0" />
        <mxCell id="1" parent="0" />
        <mxCell id="2" value="Admin" style="swimlane;whiteSpace=wrap" parent="1" vertex="1">
          <mxGeometry x="160" y="120" width="340" height="700" as="geometry" />
        </mxCell>
        <mxCell id="5" value="" style="ellipse;shape=startState;fillColor=#000000;strokeColor=#ff0000;" parent="2" vertex="1">
          <mxGeometry x="137.25" y="40" width="30" height="30" as="geometry" />
        </mxCell>
        <mxCell id="6" value="" style="edgeStyle=elbowEdgeStyle;elbow=horizontal;verticalAlign=bottom;endArrow=open;endSize=8;strokeColor=#FF0000;endFill=1;rounded=0;entryX=0.5;entryY=0;entryDx=0;entryDy=0;" parent="2" source="5" target="UeCdkYXOWvheBgf-qZ8C-6" edge="1">
          <mxGeometry x="100" y="40" as="geometry">
            <mxPoint x="152.75" y="110" as="targetPoint" />
          </mxGeometry>
        </mxCell>
        <mxCell id="UeCdkYXOWvheBgf-qZ8C-6" value="Chọn chức năng chỉnh sửa thông tin" style="rounded=1;whiteSpace=wrap;html=1;" parent="2" vertex="1">
          <mxGeometry x="100" y="110" width="104.5" height="48" as="geometry" />
        </mxCell>
        <mxCell id="UeCdkYXOWvheBgf-qZ8C-7" value="" style="endArrow=classic;html=1;rounded=0;exitX=1;exitY=0.5;exitDx=0;exitDy=0;" parent="2" source="UeCdkYXOWvheBgf-qZ8C-6" edge="1">
          <mxGeometry width="50" height="50" relative="1" as="geometry">
            <mxPoint x="250" y="190" as="sourcePoint" />
            <mxPoint x="420" y="134" as="targetPoint" />
          </mxGeometry>
        </mxCell>
        <mxCell id="UeCdkYXOWvheBgf-qZ8C-16" value="Yêu cầu đăng nhập" style="rounded=1;whiteSpace=wrap;html=1;" parent="2" vertex="1">
          <mxGeometry x="110" y="185" width="100" height="55" as="geometry" />
        </mxCell>
        <mxCell id="UeCdkYXOWvheBgf-qZ8C-19" value="Nhập thông tin người dùng cần chỉnh sửa" style="rounded=1;whiteSpace=wrap;html=1;" parent="2" vertex="1">
          <mxGeometry x="110" y="280" width="100" height="57" as="geometry" />
        </mxCell>
        <mxCell id="nLyxo2yYWUFF53oQaZmj-14" value="Thông báo lỗi và yêu cầu chỉnh sửa" style="rounded=1;whiteSpace=wrap;html=1;" vertex="1" parent="2">
          <mxGeometry x="80" y="435" width="100" height="50" as="geometry" />
        </mxCell>
        <mxCell id="nLyxo2yYWUFF53oQaZmj-15" value="" style="endArrow=classic;html=1;rounded=0;entryX=0.188;entryY=1.007;entryDx=0;entryDy=0;entryPerimeter=0;" edge="1" parent="2" source="nLyxo2yYWUFF53oQaZmj-14" target="UeCdkYXOWvheBgf-qZ8C-19">
          <mxGeometry width="50" height="50" relative="1" as="geometry">
            <mxPoint x="40" y="440" as="sourcePoint" />
            <mxPoint x="90" y="390" as="targetPoint" />
          </mxGeometry>
        </mxCell>
        <mxCell id="3" value="System" style="swimlane;whiteSpace=wrap" parent="1" vertex="1">
          <mxGeometry x="500" y="120" width="340" height="700" as="geometry" />
        </mxCell>
        <mxCell id="UeCdkYXOWvheBgf-qZ8C-8" value="Kiểm tra đăng nhập" style="rounded=1;whiteSpace=wrap;html=1;" parent="3" vertex="1">
          <mxGeometry x="80" y="104" width="90" height="46" as="geometry" />
        </mxCell>
        <mxCell id="UeCdkYXOWvheBgf-qZ8C-9" value="Tài khoản" style="rounded=0;whiteSpace=wrap;html=1;" parent="3" vertex="1">
          <mxGeometry x="190" y="40" width="110" height="50" as="geometry" />
        </mxCell>
        <mxCell id="UeCdkYXOWvheBgf-qZ8C-11" value="" style="html=1;labelBackgroundColor=#ffffff;startArrow=none;startFill=0;startSize=6;endArrow=classic;endFill=1;endSize=6;jettySize=auto;orthogonalLoop=1;strokeWidth=1;dashed=1;fontSize=14;rounded=0;entryX=0.5;entryY=0;entryDx=0;entryDy=0;exitX=0;exitY=0.5;exitDx=0;exitDy=0;" parent="3" source="UeCdkYXOWvheBgf-qZ8C-9" target="UeCdkYXOWvheBgf-qZ8C-8" edge="1">
          <mxGeometry width="60" height="60" relative="1" as="geometry">
            <mxPoint x="60" y="100" as="sourcePoint" />
            <mxPoint x="120" y="40" as="targetPoint" />
          </mxGeometry>
        </mxCell>
        <mxCell id="UeCdkYXOWvheBgf-qZ8C-12" value="" style="rhombus;whiteSpace=wrap;html=1;" parent="3" vertex="1">
          <mxGeometry x="87.5" y="180" width="75" height="60" as="geometry" />
        </mxCell>
        <mxCell id="UeCdkYXOWvheBgf-qZ8C-13" value="" style="endArrow=classic;html=1;rounded=0;entryX=0.5;entryY=0;entryDx=0;entryDy=0;exitX=0.5;exitY=1;exitDx=0;exitDy=0;" parent="3" source="UeCdkYXOWvheBgf-qZ8C-8" target="UeCdkYXOWvheBgf-qZ8C-12" edge="1">
          <mxGeometry width="50" height="50" relative="1" as="geometry">
            <mxPoint x="80" y="310" as="sourcePoint" />
            <mxPoint x="130" y="260" as="targetPoint" />
          </mxGeometry>
        </mxCell>
        <mxCell id="UeCdkYXOWvheBgf-qZ8C-20" value="Đúng" style="text;html=1;align=center;verticalAlign=middle;resizable=0;points=[];autosize=1;strokeColor=none;fillColor=none;" parent="3" vertex="1">
          <mxGeometry x="80" y="228" width="50" height="30" as="geometry" />
        </mxCell>
        <mxCell id="nLyxo2yYWUFF53oQaZmj-7" value="Kiểm tra thông tin" style="rounded=1;whiteSpace=wrap;html=1;" vertex="1" parent="3">
          <mxGeometry x="70" y="350" width="100" height="50" as="geometry" />
        </mxCell>
        <mxCell id="nLyxo2yYWUFF53oQaZmj-9" value="Tài khoản" style="rounded=0;whiteSpace=wrap;html=1;" vertex="1" parent="3">
          <mxGeometry x="190" y="280" width="100" height="50" as="geometry" />
        </mxCell>
        <mxCell id="nLyxo2yYWUFF53oQaZmj-10" value="" style="html=1;labelBackgroundColor=#ffffff;startArrow=none;startFill=0;startSize=6;endArrow=classic;endFill=1;endSize=6;jettySize=auto;orthogonalLoop=1;strokeWidth=1;dashed=1;fontSize=14;rounded=0;entryX=0.5;entryY=0;entryDx=0;entryDy=0;exitX=0;exitY=0.5;exitDx=0;exitDy=0;" edge="1" parent="3" source="nLyxo2yYWUFF53oQaZmj-9" target="nLyxo2yYWUFF53oQaZmj-7">
          <mxGeometry width="60" height="60" relative="1" as="geometry">
            <mxPoint x="215" y="240" as="sourcePoint" />
            <mxPoint x="150" y="279" as="targetPoint" />
          </mxGeometry>
        </mxCell>
        <mxCell id="nLyxo2yYWUFF53oQaZmj-11" value="" style="rhombus;whiteSpace=wrap;html=1;" vertex="1" parent="3">
          <mxGeometry x="80" y="430" width="80" height="60" as="geometry" />
        </mxCell>
        <mxCell id="nLyxo2yYWUFF53oQaZmj-12" value="" style="endArrow=classic;html=1;rounded=0;entryX=0.5;entryY=0;entryDx=0;entryDy=0;exitX=0.5;exitY=1;exitDx=0;exitDy=0;" edge="1" parent="3" source="nLyxo2yYWUFF53oQaZmj-7" target="nLyxo2yYWUFF53oQaZmj-11">
          <mxGeometry width="50" height="50" relative="1" as="geometry">
            <mxPoint x="-60" y="500" as="sourcePoint" />
            <mxPoint x="-10" y="450" as="targetPoint" />
          </mxGeometry>
        </mxCell>
        <mxCell id="nLyxo2yYWUFF53oQaZmj-16" value="Sai" style="text;html=1;align=center;verticalAlign=middle;resizable=0;points=[];autosize=1;strokeColor=none;fillColor=none;" vertex="1" parent="3">
          <mxGeometry x="50" y="430" width="40" height="30" as="geometry" />
        </mxCell>
        <mxCell id="nLyxo2yYWUFF53oQaZmj-17" value="" style="endArrow=classic;html=1;rounded=0;exitX=0.5;exitY=1;exitDx=0;exitDy=0;" edge="1" parent="3" source="nLyxo2yYWUFF53oQaZmj-11">
          <mxGeometry width="50" height="50" relative="1" as="geometry">
            <mxPoint x="140" y="590" as="sourcePoint" />
            <mxPoint x="120" y="570" as="targetPoint" />
          </mxGeometry>
        </mxCell>
        <mxCell id="nLyxo2yYWUFF53oQaZmj-18" value="Đúng" style="text;html=1;align=center;verticalAlign=middle;resizable=0;points=[];autosize=1;strokeColor=none;fillColor=none;" vertex="1" parent="3">
          <mxGeometry x="112.5" y="480" width="50" height="30" as="geometry" />
        </mxCell>
        <mxCell id="nLyxo2yYWUFF53oQaZmj-19" value="Thông báo thay đổi thông tin thành công" style="rounded=1;whiteSpace=wrap;html=1;" vertex="1" parent="3">
          <mxGeometry x="70" y="570" width="100" height="50" as="geometry" />
        </mxCell>
        <mxCell id="nLyxo2yYWUFF53oQaZmj-20" value="" style="endArrow=classic;html=1;rounded=0;exitX=1;exitY=0.5;exitDx=0;exitDy=0;" edge="1" parent="3" source="nLyxo2yYWUFF53oQaZmj-19">
          <mxGeometry width="50" height="50" relative="1" as="geometry">
            <mxPoint x="200" y="600" as="sourcePoint" />
            <mxPoint x="260" y="595" as="targetPoint" />
          </mxGeometry>
        </mxCell>
        <mxCell id="nLyxo2yYWUFF53oQaZmj-21" value="" style="ellipse;html=1;shape=endState;fillColor=#000000;strokeColor=#ff0000;" vertex="1" parent="3">
          <mxGeometry x="260" y="580" width="30" height="30" as="geometry" />
        </mxCell>
        <mxCell id="UeCdkYXOWvheBgf-qZ8C-15" value="Sai" style="text;html=1;align=center;verticalAlign=middle;resizable=0;points=[];autosize=1;strokeColor=none;fillColor=none;" parent="1" vertex="1">
          <mxGeometry x="560" y="308" width="40" height="30" as="geometry" />
        </mxCell>
        <mxCell id="UeCdkYXOWvheBgf-qZ8C-14" value="" style="endArrow=classic;html=1;rounded=0;exitX=0;exitY=0.5;exitDx=0;exitDy=0;entryX=1;entryY=0.5;entryDx=0;entryDy=0;" parent="1" source="UeCdkYXOWvheBgf-qZ8C-12" target="UeCdkYXOWvheBgf-qZ8C-16" edge="1">
          <mxGeometry width="50" height="50" relative="1" as="geometry">
            <mxPoint x="350" y="400" as="sourcePoint" />
            <mxPoint x="410" y="330" as="targetPoint" />
          </mxGeometry>
        </mxCell>
        <mxCell id="UeCdkYXOWvheBgf-qZ8C-17" value="" style="endArrow=classic;html=1;rounded=0;entryX=-0.011;entryY=0.652;entryDx=0;entryDy=0;entryPerimeter=0;exitX=1;exitY=0.5;exitDx=0;exitDy=0;" parent="1" source="UeCdkYXOWvheBgf-qZ8C-16" target="UeCdkYXOWvheBgf-qZ8C-8" edge="1">
          <mxGeometry width="50" height="50" relative="1" as="geometry">
            <mxPoint x="410" y="330" as="sourcePoint" />
            <mxPoint x="460" y="280" as="targetPoint" />
          </mxGeometry>
        </mxCell>
        <mxCell id="UeCdkYXOWvheBgf-qZ8C-18" value="" style="endArrow=classic;html=1;rounded=0;exitX=0.5;exitY=1;exitDx=0;exitDy=0;entryX=1;entryY=0.5;entryDx=0;entryDy=0;" parent="1" source="UeCdkYXOWvheBgf-qZ8C-12" target="UeCdkYXOWvheBgf-qZ8C-19" edge="1">
          <mxGeometry width="50" height="50" relative="1" as="geometry">
            <mxPoint x="610" y="470" as="sourcePoint" />
            <mxPoint x="625" y="420" as="targetPoint" />
            <Array as="points">
              <mxPoint x="625" y="430" />
            </Array>
          </mxGeometry>
        </mxCell>
        <mxCell id="nLyxo2yYWUFF53oQaZmj-6" value="" style="endArrow=classic;html=1;rounded=0;exitX=0.5;exitY=1;exitDx=0;exitDy=0;entryX=0;entryY=0.5;entryDx=0;entryDy=0;" edge="1" parent="1" source="UeCdkYXOWvheBgf-qZ8C-19" target="nLyxo2yYWUFF53oQaZmj-7">
          <mxGeometry width="50" height="50" relative="1" as="geometry">
            <mxPoint x="260" y="550" as="sourcePoint" />
            <mxPoint x="320" y="510" as="targetPoint" />
            <Array as="points">
              <mxPoint x="320" y="495" />
            </Array>
          </mxGeometry>
        </mxCell>
        <mxCell id="nLyxo2yYWUFF53oQaZmj-13" value="" style="endArrow=classic;html=1;rounded=0;exitX=0;exitY=0.5;exitDx=0;exitDy=0;entryX=1;entryY=0.5;entryDx=0;entryDy=0;" edge="1" parent="1" source="nLyxo2yYWUFF53oQaZmj-11" target="nLyxo2yYWUFF53oQaZmj-14">
          <mxGeometry width="50" height="50" relative="1" as="geometry">
            <mxPoint x="320" y="640" as="sourcePoint" />
            <mxPoint x="370" y="580" as="targetPoint" />
          </mxGeometry>
        </mxCell>
      </root>
    </mxGraphModel>
  </diagram>
</mxfile>
